<svg xmlns="http://www.w3.org/2000/svg" xml:space="preserve" width="48" height="48" viewBox="0 0 28 28"><path fill="#DEFF8F" d="M24.378 7.641c2.273 2.592-1.713 11.375-3.901 13S8.19 26.578 5.503 24.328c-2.977-2.493-3.625-19.313-.5-20.75s15.812 0 19.375 4.063z"/><path d="M25.5 19a.502.502 0 0 1-.354-.146l-5.8-5.8-7.726 1.931a.498.498 0 0 1-.475-.131l-5-5a.5.5 0 0 1 .707-.707l4.8 4.8 7.726-1.931a.498.498 0 0 1 .475.131l6 6A.5.5 0 0 1 25.5 19z"/><path d="M25.5 19h-4a.5.5 0 0 1 0-1H25v-3.5a.5.5 0 0 1 1 0v4a.5.5 0 0 1-.5.5zM25.5 25h-23a.5.5 0 0 1 0-1h23a.5.5 0 0 1 0 1z"/><path d="M3.5 26a.5.5 0 0 1-.5-.5v-23a.5.5 0 0 1 1 0v23a.5.5 0 0 1-.5.5z"/></svg>